<svg xmlns="http://www.w3.org/2000/svg" xmlns:xlink="http://www.w3.org/1999/xlink" width="1070" height="868.4"><rect width="1070" height="868.4" rx="0" ry="0" class="a"/><svg height="868.4" viewBox="0 0 107 86.84" width="1070" xmlns="http://www.w3.org/2000/svg" xmlns:xlink="http://www.w3.org/1999/xlink"><style>@keyframes l{0%{transform:translateX(0)}.3%{transform:translateX(-107px)}.5%{transform:translateX(-428px)}7.5%{transform:translateX(-642px)}25.4%{transform:translateX(-1177px)}50.2%{transform:translateX(-1284px)}66%{transform:translateX(-1391px)}72.5%{transform:translateX(-1605px)}72.7%{transform:translateX(-2033px)}to{transform:translateX(-2247px)}}.a{fill:#282d35}.c,.d{fill:#71bef2;white-space:pre}.d{fill:#6f7783}.e{fill:#d290e4}.e,.g,.h{white-space:pre}.g{fill:#a8cc8c;font-weight:700}.h{fill:#b9c0cb}</style><g font-family="Monaco,Consolas,Menlo,'Bitstream Vera Sans Mono','Powerline Symbols',monospace" font-size="1.67"><defs><symbol id="1"><text y="1.67" class="c">htty</text><text x="5.01" y="1.67" class="d">main</text></symbol><symbol id="2"><text y="1.67" class="e">❯</text></symbol><symbol id="3"><text y="1.67" class="e">❯</text><text x="2.004" y="1.67" style="white-space:pre" fill="#66c2cd">htty</text><text x="7.014" y="1.67" class="g">-r</text><text x="10.02" y="1.67" class="g">12</text><text x="13.026" y="1.67" class="g">-c</text><text x="16.032" y="1.67" class="g">50</text><text x="19.038" y="1.67" class="g">--expect</text><text x="28.056" y="1.67" class="g">Y</text><text x="30.06" y="1.67" class="g">--snapshot</text><text x="41.082" y="1.67" class="g">--expect-absent</text><text x="57.114" y="1.67" class="g">I</text><text x="59.118" y="1.67" class="g">--snapshot</text><text x="70.14" y="1.67" class="g">--</text><text x="73.146" y="1.67" class="g">sl</text></symbol><symbol id="4"><text x="20.04" y="1.67" class="h">(@@@)</text></symbol><symbol id="5"><text x="16.032" y="1.67" class="h">====</text><text x="28.056" y="1.67" class="h">________</text></symbol><symbol id="6"><text x="12.024" y="1.67" class="h">_D</text><text x="15.03" y="1.67" class="h">_|</text><text x="19.038" y="1.67" class="h">|_______/</text><text x="36.072" y="1.67" class="h">\__I_I_____===</text></symbol><symbol id="7"><text x="13.026" y="1.67" class="h">|(_)---</text><text x="22.044" y="1.67" class="h">|</text><text x="26.052" y="1.67" class="h">H\________/</text><text x="38.076" y="1.67" class="h">|</text><text x="42.084" y="1.67" class="h">|</text></symbol><symbol id="8"><text x="13.026" y="1.67" class="h">/</text><text x="19.038" y="1.67" class="h">|</text><text x="22.044" y="1.67" class="h">|</text><text x="26.052" y="1.67" class="h">H</text><text x="29.058" y="1.67" class="h">|</text><text x="32.064" y="1.67" class="h">|</text><text x="38.076" y="1.67" class="h">|</text><text x="42.084" y="1.67" class="h">|</text></symbol><symbol id="9"><text x="12.024" y="1.67" class="h">|</text><text x="19.038" y="1.67" class="h">|</text><text x="22.044" y="1.67" class="h">|</text><text x="26.052" y="1.67" class="h">H</text><text x="29.058" y="1.67" class="h">|__------------------</text></symbol><symbol id="10"><text x="12.024" y="1.67" class="h">|</text><text x="14.028" y="1.67" class="h">________|___H__/__|_____/[][]~\_____</text></symbol><symbol id="11"><text x="12.024" y="1.67" class="h">|/</text><text x="15.03" y="1.67" class="h">|</text><text x="19.038" y="1.67" class="h">|-----------I_____I</text><text x="39.078" y="1.67" class="h">[][]</text><text x="44.088" y="1.67" class="h">[]</text><text x="48.096" y="1.67" class="h">D</text></symbol><symbol id="12"><text x="10.02" y="1.67" class="h">__/</text><text x="14.028" y="1.67" class="h">=|</text><text x="17.034" y="1.67" class="h">o</text><text x="19.038" y="1.67" class="h">|=-~O=====O=====O=====O\</text><text x="44.088" y="1.67" class="h">____Y_</text></symbol><symbol id="13"><text x="11.022" y="1.67" class="h">|/-=|___|=</text><text x="25.05" y="1.67" class="h">||</text><text x="31.062" y="1.67" class="h">||</text><text x="37.074" y="1.67" class="h">||</text><text x="43.086" y="1.67" class="h">|_____/</text></symbol><symbol id="14"><text x="12.024" y="1.67" class="h">\_/</text><text x="21.042" y="1.67" class="h">\__/</text><text x="27.054" y="1.67" class="h">\__/</text><text x="33.066" y="1.67" class="h">\__/</text><text x="39.078" y="1.67" class="h">\__/</text><text x="49.098" y="1.67" class="h">\</text></symbol><symbol id="15"><text y="1.67" class="h">----</text></symbol><symbol id="16"><text x="6.012" y="1.67" class="h">___________</text></symbol><symbol id="17"><text y="1.67" class="h">_===__|_________|</text></symbol><symbol id="18"><text x="5.01" y="1.67" class="h">=|___</text><text x="11.022" y="1.67" class="h">___|</text><text x="21.042" y="1.67" class="h">_________________</text></symbol><symbol id="19"><text x="6.012" y="1.67" class="h">||_|</text><text x="11.022" y="1.67" class="h">|_||</text><text x="20.04" y="1.67" class="h">_|</text><text x="38.076" y="1.67" class="h">\_____A</text></symbol><symbol id="20"><text y="1.67" class="h">------|</text><text x="8.016" y="1.67" class="h">[___]</text><text x="14.028" y="1.67" class="h">|</text><text x="18.036" y="1.67" class="h">=|</text><text x="44.088" y="1.67" class="h">|</text></symbol><symbol id="21"><text y="1.67" class="h">______|</text><text x="14.028" y="1.67" class="h">|</text><text x="18.036" y="1.67" class="h">-|</text><text x="44.088" y="1.67" class="h">|</text></symbol><symbol id="22"><text x="2.004" y="1.67" class="h">D</text><text x="6.012" y="1.67" class="h">|=======|____|________________________|_</text></symbol><symbol id="23"><text y="1.67" class="h">__Y___________|__|__________________________|_</text></symbol><symbol id="24"><text y="1.67" class="h">___/~\___/</text><text x="20.04" y="1.67" class="h">|_D__D__D_|</text><text x="33.066" y="1.67" class="h">|_D__D__D_|</text></symbol><symbol id="25"><text x="3.006" y="1.67" class="h">\_/</text><text x="21.042" y="1.67" class="h">\_/</text><text x="27.054" y="1.67" class="h">\_/</text><text x="34.068" y="1.67" class="h">\_/</text><text x="40.08" y="1.67" class="h">\_/</text></symbol><symbol id="26"><text y="1.67" class="c">htty</text><text x="5.01" y="1.67" class="d">main</text><text x="9.018" y="1.67" style="white-space:pre" fill="#dbab79">5s</text></symbol><symbol id="a"><path fill="transparent" d="M0 0h107v40H0z"/></symbol><symbol id="b"><path fill="#6f7683" d="M0 0h1.102v2.171H0z"/></symbol></defs><path class="a" d="M0 0h107v86.84H0z"/><g style="animation-duration:12.640213s;animation-iteration-count:infinite;animation-name:l;animation-timing-function:steps(1,end)"><svg width="2354"><svg><use xlink:href="#a"/><use xlink:href="#b" x="-.004"/></svg><svg x="107"><use xlink:href="#a"/><use xlink:href="#b" x="-.004"/></svg><svg x="214"><use xlink:href="#a"/><use xlink:href="#b" x="-.004"/></svg><svg x="321"><use xlink:href="#a"/><use xlink:href="#b" x="-.004"/></svg><svg x="428"><use xlink:href="#a"/><use xlink:href="#b" x="1.996" y="84.644"/><use xlink:href="#1" y="82.498"/><use xlink:href="#2" y="84.669"/></svg><svg x="535"><use xlink:href="#a"/><use xlink:href="#b" x="1.996" y="84.644"/><use xlink:href="#1" y="82.498"/><use xlink:href="#2" y="84.669"/></svg><svg x="642"><use xlink:href="#a"/><use xlink:href="#b" x="74.996" y="84.644"/><use xlink:href="#1" y="82.498"/><use xlink:href="#3" y="84.669"/></svg><svg x="749"><use xlink:href="#a"/><use xlink:href="#b" x="74.996" y="84.644"/><use xlink:href="#1" y="82.498"/><use xlink:href="#3" y="84.669"/></svg><svg x="856"><use xlink:href="#a"/><use xlink:href="#b" x="74.996" y="84.644"/><use xlink:href="#1" y="82.498"/><use xlink:href="#3" y="84.669"/></svg><svg x="963"><use xlink:href="#a"/><use xlink:href="#b" x="-.004" y="84.644"/><use xlink:href="#1" y="80.327"/><use xlink:href="#3" y="82.498"/></svg><svg x="1070"><use xlink:href="#a"/><use xlink:href="#b" x="-.004" y="84.644"/><use xlink:href="#1" y="80.327"/><use xlink:href="#3" y="82.498"/></svg><svg x="1177"><use xlink:href="#a"/><use xlink:href="#b" x="-.004" y="84.644"/><use xlink:href="#1" y="80.327"/><use xlink:href="#3" y="82.498"/></svg><svg x="1284"><use xlink:href="#a"/><use xlink:href="#b" x="-.004" y="84.644"/><use xlink:href="#1" y="52.104"/><use xlink:href="#3" y="54.275"/><use xlink:href="#4" y="56.446"/><use xlink:href="#5" y="58.617"/><use xlink:href="#6" y="60.788"/><use xlink:href="#7" y="62.959"/><use xlink:href="#8" y="65.13"/><use xlink:href="#9" y="67.301"/><use xlink:href="#10" y="69.472"/><use xlink:href="#11" y="71.643"/><use xlink:href="#12" y="73.814"/><use xlink:href="#13" y="75.985"/><use xlink:href="#14" y="78.156"/><use xlink:href="#15" y="82.498"/></svg><svg x="1391"><use xlink:href="#a"/><use xlink:href="#b" x="-.004" y="84.644"/><use xlink:href="#1" y="23.881"/><use xlink:href="#3" y="26.052"/><use xlink:href="#4" y="28.223"/><use xlink:href="#5" y="30.394"/><use xlink:href="#6" y="32.565"/><use xlink:href="#7" y="34.736"/><use xlink:href="#8" y="36.907"/><use xlink:href="#9" y="39.078"/><use xlink:href="#10" y="41.249"/><use xlink:href="#11" y="43.42"/><use xlink:href="#12" y="45.591"/><use xlink:href="#13" y="47.762"/><use xlink:href="#14" y="49.933"/><use xlink:href="#15" y="54.275"/><use xlink:href="#16" y="58.617"/><use xlink:href="#17" y="60.788"/><use xlink:href="#18" y="62.959"/><use xlink:href="#19" y="65.13"/><use xlink:href="#20" y="67.301"/><use xlink:href="#21" y="69.472"/><use xlink:href="#22" y="71.643"/><use xlink:href="#23" y="73.814"/><use xlink:href="#24" y="75.985"/><use xlink:href="#25" y="78.156"/><use xlink:href="#15" y="82.498"/></svg><svg x="1498"><use xlink:href="#a"/><use xlink:href="#b" x="-.004" y="84.644"/><use xlink:href="#1" y="23.881"/><use xlink:href="#3" y="26.052"/><use xlink:href="#4" y="28.223"/><use xlink:href="#5" y="30.394"/><use xlink:href="#6" y="32.565"/><use xlink:href="#7" y="34.736"/><use xlink:href="#8" y="36.907"/><use xlink:href="#9" y="39.078"/><use xlink:href="#10" y="41.249"/><use xlink:href="#11" y="43.42"/><use xlink:href="#12" y="45.591"/><use xlink:href="#13" y="47.762"/><use xlink:href="#14" y="49.933"/><use xlink:href="#15" y="54.275"/><use xlink:href="#16" y="58.617"/><use xlink:href="#17" y="60.788"/><use xlink:href="#18" y="62.959"/><use xlink:href="#19" y="65.13"/><use xlink:href="#20" y="67.301"/><use xlink:href="#21" y="69.472"/><use xlink:href="#22" y="71.643"/><use xlink:href="#23" y="73.814"/><use xlink:href="#24" y="75.985"/><use xlink:href="#25" y="78.156"/><use xlink:href="#15" y="82.498"/></svg><svg x="1605"><use xlink:href="#a"/><use xlink:href="#b" x="-.004" y="84.644"/><use xlink:href="#1" y="23.881"/><use xlink:href="#3" y="26.052"/><use xlink:href="#4" y="28.223"/><use xlink:href="#5" y="30.394"/><use xlink:href="#6" y="32.565"/><use xlink:href="#7" y="34.736"/><use xlink:href="#8" y="36.907"/><use xlink:href="#9" y="39.078"/><use xlink:href="#10" y="41.249"/><use xlink:href="#11" y="43.42"/><use xlink:href="#12" y="45.591"/><use xlink:href="#13" y="47.762"/><use xlink:href="#14" y="49.933"/><use xlink:href="#15" y="54.275"/><use xlink:href="#16" y="58.617"/><use xlink:href="#17" y="60.788"/><use xlink:href="#18" y="62.959"/><use xlink:href="#19" y="65.13"/><use xlink:href="#20" y="67.301"/><use xlink:href="#21" y="69.472"/><use xlink:href="#22" y="71.643"/><use xlink:href="#23" y="73.814"/><use xlink:href="#24" y="75.985"/><use xlink:href="#25" y="78.156"/><use xlink:href="#15" y="82.498"/></svg><svg x="1712"><use xlink:href="#a"/><use xlink:href="#b" x="-.004" y="84.644"/><use xlink:href="#1" y="23.881"/><use xlink:href="#3" y="26.052"/><use xlink:href="#4" y="28.223"/><use xlink:href="#5" y="30.394"/><use xlink:href="#6" y="32.565"/><use xlink:href="#7" y="34.736"/><use xlink:href="#8" y="36.907"/><use xlink:href="#9" y="39.078"/><use xlink:href="#10" y="41.249"/><use xlink:href="#11" y="43.42"/><use xlink:href="#12" y="45.591"/><use xlink:href="#13" y="47.762"/><use xlink:href="#14" y="49.933"/><use xlink:href="#15" y="54.275"/><use xlink:href="#16" y="58.617"/><use xlink:href="#17" y="60.788"/><use xlink:href="#18" y="62.959"/><use xlink:href="#19" y="65.13"/><use xlink:href="#20" y="67.301"/><use xlink:href="#21" y="69.472"/><use xlink:href="#22" y="71.643"/><use xlink:href="#23" y="73.814"/><use xlink:href="#24" y="75.985"/><use xlink:href="#25" y="78.156"/><use xlink:href="#15" y="82.498"/></svg><svg x="1819"><use xlink:href="#a"/><use xlink:href="#b" x="-.004" y="84.644"/><use xlink:href="#1" y="23.881"/><use xlink:href="#3" y="26.052"/><use xlink:href="#4" y="28.223"/><use xlink:href="#5" y="30.394"/><use xlink:href="#6" y="32.565"/><use xlink:href="#7" y="34.736"/><use xlink:href="#8" y="36.907"/><use xlink:href="#9" y="39.078"/><use xlink:href="#10" y="41.249"/><use xlink:href="#11" y="43.42"/><use xlink:href="#12" y="45.591"/><use xlink:href="#13" y="47.762"/><use xlink:href="#14" y="49.933"/><use xlink:href="#15" y="54.275"/><use xlink:href="#16" y="58.617"/><use xlink:href="#17" y="60.788"/><use xlink:href="#18" y="62.959"/><use xlink:href="#19" y="65.13"/><use xlink:href="#20" y="67.301"/><use xlink:href="#21" y="69.472"/><use xlink:href="#22" y="71.643"/><use xlink:href="#23" y="73.814"/><use xlink:href="#24" y="75.985"/><use xlink:href="#25" y="78.156"/><use xlink:href="#15" y="82.498"/></svg><svg x="1926"><use xlink:href="#a"/><use xlink:href="#b" x="-.004" y="84.644"/><use xlink:href="#1" y="23.881"/><use xlink:href="#3" y="26.052"/><use xlink:href="#4" y="28.223"/><use xlink:href="#5" y="30.394"/><use xlink:href="#6" y="32.565"/><use xlink:href="#7" y="34.736"/><use xlink:href="#8" y="36.907"/><use xlink:href="#9" y="39.078"/><use xlink:href="#10" y="41.249"/><use xlink:href="#11" y="43.42"/><use xlink:href="#12" y="45.591"/><use xlink:href="#13" y="47.762"/><use xlink:href="#14" y="49.933"/><use xlink:href="#15" y="54.275"/><use xlink:href="#16" y="58.617"/><use xlink:href="#17" y="60.788"/><use xlink:href="#18" y="62.959"/><use xlink:href="#19" y="65.13"/><use xlink:href="#20" y="67.301"/><use xlink:href="#21" y="69.472"/><use xlink:href="#22" y="71.643"/><use xlink:href="#23" y="73.814"/><use xlink:href="#24" y="75.985"/><use xlink:href="#25" y="78.156"/><use xlink:href="#15" y="82.498"/></svg><svg x="2033"><use xlink:href="#a"/><use xlink:href="#b" x="1.996" y="84.644"/><use xlink:href="#1" y="19.539"/><use xlink:href="#3" y="21.71"/><use xlink:href="#4" y="23.881"/><use xlink:href="#5" y="26.052"/><use xlink:href="#6" y="28.223"/><use xlink:href="#7" y="30.394"/><use xlink:href="#8" y="32.565"/><use xlink:href="#9" y="34.736"/><use xlink:href="#10" y="36.907"/><use xlink:href="#11" y="39.078"/><use xlink:href="#12" y="41.249"/><use xlink:href="#13" y="43.42"/><use xlink:href="#14" y="45.591"/><use xlink:href="#15" y="49.933"/><use xlink:href="#16" y="54.275"/><use xlink:href="#17" y="56.446"/><use xlink:href="#18" y="58.617"/><use xlink:href="#19" y="60.788"/><use xlink:href="#20" y="62.959"/><use xlink:href="#21" y="65.13"/><use xlink:href="#22" y="67.301"/><use xlink:href="#23" y="69.472"/><use xlink:href="#24" y="71.643"/><use xlink:href="#25" y="73.814"/><use xlink:href="#15" y="78.156"/><use xlink:href="#26" y="82.498"/><use xlink:href="#2" y="84.669"/></svg><svg x="2140"><use xlink:href="#a"/><use xlink:href="#b" x="-.004" y="84.644"/><use xlink:href="#1" y="17.368"/><use xlink:href="#3" y="19.539"/><use xlink:href="#4" y="21.71"/><use xlink:href="#5" y="23.881"/><use xlink:href="#6" y="26.052"/><use xlink:href="#7" y="28.223"/><use xlink:href="#8" y="30.394"/><use xlink:href="#9" y="32.565"/><use xlink:href="#10" y="34.736"/><use xlink:href="#11" y="36.907"/><use xlink:href="#12" y="39.078"/><use xlink:href="#13" y="41.249"/><use xlink:href="#14" y="43.42"/><use xlink:href="#15" y="47.762"/><use xlink:href="#16" y="52.104"/><use xlink:href="#17" y="54.275"/><use xlink:href="#18" y="56.446"/><use xlink:href="#19" y="58.617"/><use xlink:href="#20" y="60.788"/><use xlink:href="#21" y="62.959"/><use xlink:href="#22" y="65.13"/><use xlink:href="#23" y="67.301"/><use xlink:href="#24" y="69.472"/><use xlink:href="#25" y="71.643"/><use xlink:href="#15" y="75.985"/><use xlink:href="#26" y="80.327"/><use xlink:href="#2" y="82.498"/></svg><svg x="2247"><use xlink:href="#a"/><use xlink:href="#b" x="-.004" y="84.644"/><use xlink:href="#1" y="15.197"/><use xlink:href="#3" y="17.368"/><use xlink:href="#4" y="19.539"/><use xlink:href="#5" y="21.71"/><use xlink:href="#6" y="23.881"/><use xlink:href="#7" y="26.052"/><use xlink:href="#8" y="28.223"/><use xlink:href="#9" y="30.394"/><use xlink:href="#10" y="32.565"/><use xlink:href="#11" y="34.736"/><use xlink:href="#12" y="36.907"/><use xlink:href="#13" y="39.078"/><use xlink:href="#14" y="41.249"/><use xlink:href="#15" y="45.591"/><use xlink:href="#16" y="49.933"/><use xlink:href="#17" y="52.104"/><use xlink:href="#18" y="54.275"/><use xlink:href="#19" y="56.446"/><use xlink:href="#20" y="58.617"/><use xlink:href="#21" y="60.788"/><use xlink:href="#22" y="62.959"/><use xlink:href="#23" y="65.13"/><use xlink:href="#24" y="67.301"/><use xlink:href="#25" y="69.472"/><use xlink:href="#15" y="73.814"/><use xlink:href="#26" y="78.156"/><use xlink:href="#2" y="80.327"/></svg></svg></g></g></svg></svg>