<svg xmlns="http://www.w3.org/2000/svg" xmlns:xlink="http://www.w3.org/1999/xlink" width="930" height="559.33"><rect width="930" height="559.33" rx="5" ry="5" class="a"/><svg y="0%" x="0%"><circle cx="20" cy="20" r="6" fill="#ff5f58"/><circle cx="40" cy="20" r="6" fill="#ffbd2e"/><circle cx="60" cy="20" r="6" fill="#18c132"/></svg><svg height="499.33" viewBox="0 0 89 49.933" width="890" x="15" xmlns="http://www.w3.org/2000/svg" xmlns:xlink="http://www.w3.org/1999/xlink" y="50"><style>@keyframes o{0%{transform:translateX(0)}.5%{transform:translateX(-89px)}.9%{transform:translateX(-356px)}7.8%{transform:translateX(-445px)}7.9%{transform:translateX(-534px)}17.1%{transform:translateX(-979px)}44.8%{transform:translateX(-1068px)}74.9%{transform:translateX(-1157px)}87.3%{transform:translateX(-1335px)}87.6%{transform:translateX(-1602px)}to{transform:translateX(-1780px)}}.a{fill:#282d35}.f,.g{fill:#71bef2;white-space:pre}.g{fill:#6f7783}.h{fill:#d290e4}.h,.j,.k{white-space:pre}.j{fill:#a8cc8c;font-weight:700}.k{fill:#b9c0cb}</style><g font-family="Monaco,Consolas,Menlo,'Bitstream Vera Sans Mono','Powerline Symbols',monospace" font-size="1.67"><defs><symbol id="1"><text y="1.67" class="f">htty</text><text x="5.01" y="1.67" class="g">main</text></symbol><symbol id="2"><text y="1.67" class="h">❯</text></symbol><symbol id="3"><text y="1.67" class="h">❯</text><text x="3.006" y="1.67" style="white-space:pre" fill="#66c2cd">htty</text><text x="8.016" y="1.67" class="j">-r</text><text x="11.022" y="1.67" class="j">15</text><text x="14.028" y="1.67" class="j">-c</text><text x="17.034" y="1.67" class="j">50</text><text x="20.04" y="1.67" class="j">--expect</text><text x="29.058" y="1.67" class="j">Y</text><text x="31.062" y="1.67" class="j">--snapshot</text><text x="42.084" y="1.67" class="j">--expect-absent</text><text x="58.116" y="1.67" class="j">I</text><text x="60.12" y="1.67" class="j">--snapshot</text><text x="71.142" y="1.67" class="j">--</text><text x="74.148" y="1.67" class="j">sl</text></symbol><symbol id="4"><text x="12.024" y="1.67" class="k">|/-=|___|=</text><text x="25.05" y="1.67" class="k">O=====O=====O=====O|_____</text></symbol><symbol id="5"><text x="13.026" y="1.67" class="k">\_/</text><text x="22.044" y="1.67" class="k">\__/</text><text x="28.056" y="1.67" class="k">\__/</text><text x="34.068" y="1.67" class="k">\__/</text><text x="40.08" y="1.67" class="k">\__/</text></symbol><symbol id="6"><text y="1.67" class="k">----</text></symbol><symbol id="7"><text x="6.012" y="1.67" class="k">___________</text></symbol><symbol id="8"><text y="1.67" class="k">_===__|_________|</text></symbol><symbol id="9"><text x="5.01" y="1.67" class="k">=|___</text><text x="11.022" y="1.67" class="k">___|</text><text x="21.042" y="1.67" class="k">_________________</text></symbol><symbol id="10"><text x="6.012" y="1.67" class="k">||_|</text><text x="11.022" y="1.67" class="k">|_||</text><text x="20.04" y="1.67" class="k">_|</text><text x="38.076" y="1.67" class="k">\_____A</text></symbol><symbol id="11"><text y="1.67" class="k">------|</text><text x="8.016" y="1.67" class="k">[___]</text><text x="14.028" y="1.67" class="k">|</text><text x="18.036" y="1.67" class="k">=|</text><text x="44.088" y="1.67" class="k">|</text></symbol><symbol id="12"><text y="1.67" class="k">______|</text><text x="14.028" y="1.67" class="k">|</text><text x="18.036" y="1.67" class="k">-|</text><text x="44.088" y="1.67" class="k">|</text></symbol><symbol id="13"><text x="2.004" y="1.67" class="k">D</text><text x="6.012" y="1.67" class="k">|=======|____|________________________|_</text></symbol><symbol id="14"><text y="1.67" class="k">__Y___________|__|__________________________|_</text></symbol><symbol id="15"><text y="1.67" class="k">___/~\___/</text><text x="20.04" y="1.67" class="k">|_D__D__D_|</text><text x="33.066" y="1.67" class="k">|_D__D__D_|</text></symbol><symbol id="16"><text x="3.006" y="1.67" class="k">\_/</text><text x="21.042" y="1.67" class="k">\_/</text><text x="27.054" y="1.67" class="k">\_/</text><text x="34.068" y="1.67" class="k">\_/</text><text x="40.08" y="1.67" class="k">\_/</text></symbol><symbol id="17"><text y="1.67" class="f">htty</text><text x="5.01" y="1.67" class="g">main</text><text x="9.018" y="1.67" style="white-space:pre" fill="#dbab79">4s</text></symbol><symbol id="a"><path fill="transparent" d="M0 0h89v23H0z"/></symbol><symbol id="b"><path fill="#6f7683" d="M0 0h1.102v2.171H0z"/></symbol></defs><path class="a" d="M0 0h89v49.933H0z"/><g style="animation-duration:6.647436s;animation-iteration-count:infinite;animation-name:o;animation-timing-function:steps(1,end)"><svg width="1869"><svg><use xlink:href="#a"/><use xlink:href="#b" x="-.004"/></svg><svg x="89"><use xlink:href="#a"/><use xlink:href="#b" x="-.004"/></svg><svg x="178"><use xlink:href="#a"/><use xlink:href="#b" x="-.004"/></svg><svg x="267"><use xlink:href="#a"/><use xlink:href="#b" x="-.004"/></svg><svg x="356"><use xlink:href="#a"/><use xlink:href="#b" x="1.996" y="47.737"/><use xlink:href="#1" y="45.591"/><use xlink:href="#2" y="47.762"/></svg><svg x="445"><use xlink:href="#a"/><use xlink:href="#b" x="1.996" y="47.737"/><use xlink:href="#1" y="45.591"/><use xlink:href="#2" y="47.762"/></svg><svg x="534"><use xlink:href="#a"/><use xlink:href="#b" x="75.996" y="47.737"/><use xlink:href="#1" y="45.591"/><use xlink:href="#3" y="47.762"/></svg><svg x="623"><use xlink:href="#a"/><use xlink:href="#b" x="75.996" y="47.737"/><use xlink:href="#1" y="45.591"/><use xlink:href="#3" y="47.762"/></svg><svg x="712"><use xlink:href="#a"/><use xlink:href="#b" x="-.004" y="47.737"/><use xlink:href="#1" y="43.42"/><use xlink:href="#3" y="45.591"/></svg><svg x="801"><use xlink:href="#a"/><use xlink:href="#b" x="-.004" y="47.737"/><use xlink:href="#1" y="43.42"/><use xlink:href="#3" y="45.591"/></svg><svg x="890"><use xlink:href="#a"/><use xlink:href="#b" x="-.004" y="47.737"/><use xlink:href="#1" y="43.42"/><use xlink:href="#3" y="45.591"/></svg><svg x="979"><use xlink:href="#a"/><use xlink:href="#b" x="-.004" y="47.737"/><use xlink:href="#1" y="43.42"/><use xlink:href="#3" y="45.591"/></svg><svg x="1068"><use xlink:href="#a"/><use xlink:href="#b" x="-.004" y="47.737"/><use xlink:href="#1" y="8.684"/><use xlink:href="#3" y="10.855"/><text x="20.04" y="16.867" class="k">(@@@)</text><text x="17.034" y="19.038" class="k">====</text><text x="29.058" y="19.038" class="k">________</text><text x="13.026" y="21.209" class="k">_D</text><text x="16.032" y="21.209" class="k">_|</text><text x="20.04" y="21.209" class="k">|_______/</text><text x="37.074" y="21.209" class="k">\__I_I_____==</text><text x="14.028" y="23.38" class="k">|(_)---</text><text x="23.046" y="23.38" class="k">|</text><text x="27.054" y="23.38" class="k">H\________/</text><text x="39.078" y="23.38" class="k">|</text><text x="43.086" y="23.38" class="k">|</text><text x="14.028" y="25.551" class="k">/</text><text x="20.04" y="25.551" class="k">|</text><text x="23.046" y="25.551" class="k">|</text><text x="27.054" y="25.551" class="k">H</text><text x="30.06" y="25.551" class="k">|</text><text x="33.066" y="25.551" class="k">|</text><text x="39.078" y="25.551" class="k">|</text><text x="43.086" y="25.551" class="k">|</text><text x="13.026" y="27.722" class="k">|</text><text x="20.04" y="27.722" class="k">|</text><text x="23.046" y="27.722" class="k">|</text><text x="27.054" y="27.722" class="k">H</text><text x="30.06" y="27.722" class="k">|__-----------------</text><text x="13.026" y="29.893" class="k">|</text><text x="15.03" y="29.893" class="k">________|___H__/__|_____/[][]~\____</text><text x="13.026" y="32.064" class="k">|/</text><text x="16.032" y="32.064" class="k">|</text><text x="20.04" y="32.064" class="k">|-----------I_____I</text><text x="40.08" y="32.064" class="k">[][]</text><text x="45.09" y="32.064" class="k">[]</text><text x="49.098" y="32.064" class="k">D</text><text x="11.022" y="34.235" class="k">__/</text><text x="15.03" y="34.235" class="k">=|</text><text x="18.036" y="34.235" class="k">o</text><text x="20.04" y="34.235" class="k">|=-~~\</text><text x="28.056" y="34.235" class="k">/~~\</text><text x="34.068" y="34.235" class="k">/~~\</text><text x="40.08" y="34.235" class="k">/~~\</text><text x="45.09" y="34.235" class="k">____Y</text><use xlink:href="#4" y="34.736"/><use xlink:href="#5" y="36.907"/><use xlink:href="#6" y="45.591"/></svg><svg x="1157"><use xlink:href="#a"/><use xlink:href="#b" x="-.004" y="47.737"/><use xlink:href="#4"/><use xlink:href="#5" y="2.171"/><use xlink:href="#6" y="10.855"/><use xlink:href="#7" y="17.368"/><use xlink:href="#8" y="19.539"/><use xlink:href="#9" y="21.71"/><use xlink:href="#10" y="23.881"/><use xlink:href="#11" y="26.052"/><use xlink:href="#12" y="28.223"/><use xlink:href="#13" y="30.394"/><use xlink:href="#14" y="32.565"/><use xlink:href="#15" y="34.736"/><use xlink:href="#16" y="36.907"/><use xlink:href="#6" y="45.591"/></svg><svg x="1246"><use xlink:href="#a"/><use xlink:href="#b" x="-.004" y="47.737"/><use xlink:href="#4"/><use xlink:href="#5" y="2.171"/><use xlink:href="#6" y="10.855"/><use xlink:href="#7" y="17.368"/><use xlink:href="#8" y="19.539"/><use xlink:href="#9" y="21.71"/><use xlink:href="#10" y="23.881"/><use xlink:href="#11" y="26.052"/><use xlink:href="#12" y="28.223"/><use xlink:href="#13" y="30.394"/><use xlink:href="#14" y="32.565"/><use xlink:href="#15" y="34.736"/><use xlink:href="#16" y="36.907"/><use xlink:href="#6" y="45.591"/></svg><svg x="1335"><use xlink:href="#a"/><use xlink:href="#b" x="-.004" y="47.737"/><use xlink:href="#4"/><use xlink:href="#5" y="2.171"/><use xlink:href="#6" y="10.855"/><use xlink:href="#7" y="17.368"/><use xlink:href="#8" y="19.539"/><use xlink:href="#9" y="21.71"/><use xlink:href="#10" y="23.881"/><use xlink:href="#11" y="26.052"/><use xlink:href="#12" y="28.223"/><use xlink:href="#13" y="30.394"/><use xlink:href="#14" y="32.565"/><use xlink:href="#15" y="34.736"/><use xlink:href="#16" y="36.907"/><use xlink:href="#6" y="45.591"/></svg><svg x="1424"><use xlink:href="#a"/><use xlink:href="#b" x="-.004" y="47.737"/><use xlink:href="#4"/><use xlink:href="#5" y="2.171"/><use xlink:href="#6" y="10.855"/><use xlink:href="#7" y="17.368"/><use xlink:href="#8" y="19.539"/><use xlink:href="#9" y="21.71"/><use xlink:href="#10" y="23.881"/><use xlink:href="#11" y="26.052"/><use xlink:href="#12" y="28.223"/><use xlink:href="#13" y="30.394"/><use xlink:href="#14" y="32.565"/><use xlink:href="#15" y="34.736"/><use xlink:href="#16" y="36.907"/><use xlink:href="#6" y="45.591"/></svg><svg x="1513"><use xlink:href="#a"/><use xlink:href="#b" x="-.004" y="47.737"/><use xlink:href="#4"/><use xlink:href="#5" y="2.171"/><use xlink:href="#6" y="10.855"/><use xlink:href="#7" y="17.368"/><use xlink:href="#8" y="19.539"/><use xlink:href="#9" y="21.71"/><use xlink:href="#10" y="23.881"/><use xlink:href="#11" y="26.052"/><use xlink:href="#12" y="28.223"/><use xlink:href="#13" y="30.394"/><use xlink:href="#14" y="32.565"/><use xlink:href="#15" y="34.736"/><use xlink:href="#16" y="36.907"/><use xlink:href="#6" y="45.591"/></svg><svg x="1602"><use xlink:href="#a"/><use xlink:href="#b" x="1.996" y="47.737"/><use xlink:href="#6" y="6.513"/><use xlink:href="#7" y="13.026"/><use xlink:href="#8" y="15.197"/><use xlink:href="#9" y="17.368"/><use xlink:href="#10" y="19.539"/><use xlink:href="#11" y="21.71"/><use xlink:href="#12" y="23.881"/><use xlink:href="#13" y="26.052"/><use xlink:href="#14" y="28.223"/><use xlink:href="#15" y="30.394"/><use xlink:href="#16" y="32.565"/><use xlink:href="#6" y="41.249"/><use xlink:href="#17" y="45.591"/><use xlink:href="#2" y="47.762"/></svg><svg x="1691"><use xlink:href="#a"/><use xlink:href="#b" x="-.004" y="47.737"/><use xlink:href="#6" y="4.342"/><use xlink:href="#7" y="10.855"/><use xlink:href="#8" y="13.026"/><use xlink:href="#9" y="15.197"/><use xlink:href="#10" y="17.368"/><use xlink:href="#11" y="19.539"/><use xlink:href="#12" y="21.71"/><use xlink:href="#13" y="23.881"/><use xlink:href="#14" y="26.052"/><use xlink:href="#15" y="28.223"/><use xlink:href="#16" y="30.394"/><use xlink:href="#6" y="39.078"/><use xlink:href="#17" y="43.42"/><use xlink:href="#2" y="45.591"/></svg><svg x="1780"><use xlink:href="#a"/><use xlink:href="#b" x="-.004" y="47.737"/><use xlink:href="#6" y="2.171"/><use xlink:href="#7" y="8.684"/><use xlink:href="#8" y="10.855"/><use xlink:href="#9" y="13.026"/><use xlink:href="#10" y="15.197"/><use xlink:href="#11" y="17.368"/><use xlink:href="#12" y="19.539"/><use xlink:href="#13" y="21.71"/><use xlink:href="#14" y="23.881"/><use xlink:href="#15" y="26.052"/><use xlink:href="#16" y="28.223"/><use xlink:href="#6" y="36.907"/><use xlink:href="#17" y="41.249"/><use xlink:href="#2" y="43.42"/></svg></svg></g></g></svg></svg>